<svg id="Layer_1" data-name="Layer 1" xmlns="http://www.w3.org/2000/svg" viewBox="0 0 2000 2000"><path d="M593.05,1522.88c-13.4-1.43-27.82,1.07-31.32-19.15-4.09-23.59-11.32-46.63-18.18-73.88-12.58-4-27.64-7.72-41.73-13.7-10.87-4.6-27.89-10.64-29.4-18.5-5.55-28.9-26.11-42.64-45.89-59.91-25-21.85-24.69-50-3.68-85.41,6.58-11.08,21.39-20.87-1.84-34.54-5.63,9.07-10.24,17.73-16,25.54-18.78,25.45-41.69,30.26-62.29,13.59-17.89-14.48-22.05-40.5-3-60,17.92-18.33,23.95-38.09,23-61.23-.49-11.58-3.39-24.09-8.79-34.27-27.85-52.48-28.13-52.16,10-100.34,3.28-4.14,3.24-10.89-2.81-21.5-7.41,7.15-14.33,14.92-22.35,21.31-17.07,13.6-39.09,14-52.56,1.7-14.83-13.5-16.37-40.41.85-55.9,36-32.39,52.41-72.26,54.86-119.68.61-11.79,2.41-29.53,9.89-33.91,35-20.47,33.79-63.58,59.67-89.13,5.76-5.68,10.7-15.12,10.91-23,.86-32.46,21.95-50.9,45.59-66.13a951.08,951.08,0,0,1,89.82-51c31.56-15.78,34.12-47.57,40.17-74.53,5.75-25.68,5.45-51.14,28-70.41,6.39-5.47,8.83-19.09,8.16-28.62C631.79,357.79,652,343,677.16,331.81c47.65-21.23,68.72-16.31,101.41,25.22,27.06-17.26,54.95-34.15,81.85-52.49,23.83-16.23,42.91-5.43,62,8.23,59.41-41.9,99.5-29.56,137.54,40.94,36.71,5.14,72.39,10.24,108.12,15,5.1.68,11.62,1.72,15.44-.67,31.21-19.55,53.74-11.38,76.24,16.62,16.82,20.93,43.4,19.73,68.16,12.81,21.37-6,43.61-20.12,63.43-17.14,20.12,3,37.74,22.61,58.29,36.15,7.75-4.83,16.19-10.63,25.14-15.49,7.42-4,18.89-12.08,22.62-9.55,25,16.91,50.27.88,75.13,2.49,32.73,2.12,47.19,13.21,37.56,42.83-6.15,18.92-5.48,31.45,4.33,47.41,5,8.1,4.34,20,5.13,30.21.52,6.85-3.82,15.44-1,20.55,41.38,75.93,23.93,167.41,64.76,243.38,4.09,7.6,10.7,18.06,8.35,24.2-14.82,38.66,7.93,69.33,18.73,102.73,10.53,32.55-5.35,67.19,7.71,100.88,2.94,7.59-16,23.68-28.06,40.12,14.83,23.2,50.89,42,27.83,85.62-16.23,30.69-20.48,67.13-67.82,72.38,2.76,16.52,3.32,30.12,7.43,42.56,11.22,33.93,8.93,62.88-16,92.1-15,17.53-25.77,42.47-29.07,65.42-8.86,61.51-38.78,111.57-80.4,153.94-13.39,13.64-20,27.5-25,43.07-10,31.14-17.34,63.12-25.82,94.89-27,1.89-52.71,2.79-78.18,5.69-36.75,4.18-60-10.64-70.24-46.07-7.52,1-15,2-24.17,3.27-2-13.64-3.69-25.25-7-47.94-7.41,37.42-12.65,63.92-18.5,93.44-55.73,2-112.22,11.55-166,3.45-41.44-6.25-92.73,7.67-122.83-40.28-8.46,9.24-13.82,15.83-19.95,21.61-14.85,14-30.15,14.86-46.87,2.14-14.8-11.25-30.65-21.12-46.09-31.53-4.06-2.74-8.17-7.16-12.5-7.48-73.17-5.26-89.13-10.74-141.32-39.63a321.53,321.53,0,0,0-71.93-29.26c-33.81-9.05-55.32-27.75-63.43-61.74a14.84,14.84,0,0,0,3.7-1.28c.58-.39.6-1.63.88-2.49Z"/></svg>