<svg id="Layer_1" data-name="Layer 1" xmlns="http://www.w3.org/2000/svg" viewBox="0 0 2000 2000"><path d="M933.55,421.37c-139.81,2.39-278.19,16.56-412.45,57.27-92.57,28.06-181.24,65.83-252.57,134-50.22,48-92.59,101.72-76.75,177.92,6.71,32.31,18,64.12,30.93,94.54,8.51,20,13.83,39.25,12.48,60.53-4.12,65.23-7.95,130.48-12.7,195.66-5.4,74.15,6.08,145.26,38.87,212,19.92,40.55,51.21,71.83,87.93,98.11,77.12,55.18,165.88,80.49,256.84,98.27,139.81,27.33,280.93,33.87,423.39,25.72,148.28-8.48,294.58-28.06,436.76-70.33,65.73-19.54,130.22-46.17,191.32-77.31,38.52-19.64,73.8-49.87,103.25-82,40.69-44.42,43.79-99.73,13.61-151.2-25.56-43.59-22.74-81.39-.37-124.75,66.14-128.2,42.7-281.53-53.69-388.43-74.87-83-169.25-134.11-271.58-173.19C1302,452,1148.74,430.43,992.72,424,973,423.15,953.28,422.24,933.55,421.37Z"/></svg>