<svg id="Layer_1" data-name="Layer 1" xmlns="http://www.w3.org/2000/svg" viewBox="0 0 2000 2000"><path d="M370,1113.31c-7.69,61.81-14.62,117.5-22.26,178.88H478.06c-.9,18.64-1.8,31.68-2.11,44.74-1.49,62.77-3.18,125.55-3.82,188.34-.1,10.62,4.63,21.3,8,35.56h90.53c4.3,32.47,8.13,61.36,12.57,94.84,43,1.65,85.7,3.31,128.4,4.9,16.28.61,21.89-10.37,22.58-23.62,2.12-40.43,6.14-81.07,4.07-121.36-3.67-71.3-13.52-142.3-16.44-213.6-1.81-44.15,4-88.65,7.25-132.94.76-10.33,4.81-20.43,11.54-30.31-7.92,203.9,24,403.14,58,606.62H938c-1.76-69.24-6.13-135.15-4.36-200.9,1.76-65,9.72-129.81,15-194.7l9.86.34c0,44.15-1.11,88.33.31,132.43,1.44,44.33,3.41,88.82,8.83,132.78,5.53,45,15.54,89.36,24,136.16h149.75c10.14-55.35,20.16-110.11,30.19-164.88l8.79.31,12.21,75.82c46.6,9.54,95,6.73,147.79,5,32.57-161,64.77-320.2,97-479.44l8.27,1.63c-11,63.55-23.36,126.92-32.81,190.71-9.34,63.07-15.8,126.58-24.16,195.09h151c11.89-71.31,24-143.73,36.47-218.67,17.4,0,34.2-.56,51,.1,61.69,2.43,58,11.49,84.52-51.66a297.29,297.29,0,0,0,22.42-96.64c2.5-45.25-4.49-90.95-4.18-136.43.24-34.23,4.48-68.56,8.94-102.58,4.64-35.38,11.94-70.41,17.54-105.68,1.52-9.56,1.08-19.44,1.76-33.78-18.22-.63-35-1.07-51.83-1.83-29.23-1.32-30.68-2.12-37.56-29.92-17.46-70.54-34.45-141.21-51.76-211.79-3.22-13.1-7.08-26.05-12.08-44.3-19.81,0-40.21-.58-60.56.14-26.81,1-27.31,1.19-31.42-23.54-3-18.22-5.27-36.56-8.19-54.79-4.46-27.81-7.26-30.33-35.68-30.23-30.85.11-61.71.92-92.56,1.05-4.66,0-9.32-2-15.53-3.41L1342.85,318.7h-143.7c-10.15,157.8-20.08,315.37-50.72,470.82,7.32-179,1.84-356.85-31.71-538.07-48.65-5.13-97-2.45-146.73.1-25.64,169.87-50.88,337.11-76.12,504.34l-8.11-.35c-22.9-157.5-45.8-315-69.06-475H669.15c-22.17,95.73-29,194.29-41.26,291.9l-9.12-.26c-3.55-17.66-7.47-35.25-10.54-53-3.37-19.46-12-31.14-34.14-30.1-38,1.77-76,2.09-116.79,3.08-5.91,30.69-11.16,58-16.69,86.73-44.42-1.79-64.4,30.79-84.84,59-78.47,108.19-116.63,229.8-113.56,363.68.59,25.82,3.62,51.69,7.25,77.3,3.79,26.66,11.1,32.92,39.26,34.23C313.21,1114.21,337.8,1113.31,370,1113.31Z"/></svg>