<svg id="Layer_1" data-name="Layer 1" xmlns="http://www.w3.org/2000/svg" viewBox="0 0 2000 2000"><path d="M1629.53,1256.55c40.2-46.7,60.7-98,74-156.79-24.76,17-47.18,28.64-80,24.54,13.84-41.91,29.78-79.59,51-115.13,8.23-13.74,17.62-26.91,24.57-41.27,13-26.82,3.77-48.38-24.07-58.06-9.26-3.22-19.21-4.44-28.81-6.69-36.46-8.54-56-28.87-56.59-66.6-.4-26.74,3.89-54,9.47-80.28,6.62-31.23,16.71-61.72,25.58-92.45,7.89-27.32,8.25-32.85-15.9-45.29-30.63-15.78-39.84-40.79-42.82-72.07s-10.72-37.58-41.76-47.1c-11.2-3.43-22.26-10.26-31-18.17-42.92-38.8-91.35-65.84-148.07-79.68-18-4.38-34-18.22-49.73-29.4-9.9-7-17.08-17.79-26.41-25.79-24.76-21.25-43.24-20.95-69,.6-8.49,7.13-16,15.51-24.68,22.33-20.74,16.25-31.89,17.6-53.34,2.14-16.88-12.18-31-28-47-41.5-21.62-18.21-42.48-37.84-66.12-53-41.36-26.59-85.93-29.73-129.5-5.06-38.91,22-80,30.3-124.24,29.13-52.53-1.38-66.6,9.87-80.42,61.43-6.38,23.79-9.07,48.87-17.9,71.63-8.23,21.21-19.41,42.89-34.67,59.38-20.7,22.36-46.14,40.48-70.42,59.27A38.62,38.62,0,0,1,528,560.09c-36.64-2-53.38,19.36-63.06,50.4-12,38.58-24.2,77.11-37,117.88-7.24-3.45-14.39-7.58-22-10.38-19.22-7-36.78-4.68-49.75,12.5C307.88,794.33,287.5,866,297.6,945.62c1.18,9.27,5.43,20.47,12.15,26.28,20.06,17.35,23.48,38.5,21.5,63.05-2.55,31.58,5.77,61.48,21.26,88.6,11.59,20.27,8.35,35.64-5.73,53.17-10.59,13.18-18.46,29.25-24.59,45.17-14.46,37.6.64,63.07,41,68.43,45.72,6.07,90.94-.25,135.81-9.54,11.73-2.43,23.7-3.67,38.12-5.84.61,26.44-11.22,43.08-27.19,56.28-52.94,43.76-72,104.09-83.84,168a83.15,83.15,0,0,0-.18,29c4.2,23.91,14.28,32.18,38.51,28.36,30.32-4.78,60.35-11.78,90.23-18.95,26.35-6.33,52.11-15.19,78.51-21.25,101.34-23.24,188.65,34.55,219.11,109.11,12,29.44,25.87,59,44,84.87,29.9,42.56,59.43,45,99.78,12.22,18.09-14.69,34.54-31.42,51.54-47,2.76-.3,5.43-1.4,7.51-.71,53.12,17.66,71.06,12.53,105.51-30.57,8.45-10.59,17.1-21,25.19-31.9,28.77-38.64,68.57-45.83,112.43-37.82,19.76,3.61,36.62,14.42,45.94,33.94a112.85,112.85,0,0,0,9.28,16c19.22,27.44,37.08,30.07,60.36,6.63,12-12.09,21.94-26.66,30.83-41.31,45.24-74.48,99.89-140.26,170.85-191.92,17.86-13,34.33-28.28,49.65-44.23,9.14-9.51,16.52-21.63,21.69-33.85,10.88-25.65,4.88-38.87-20.26-49.52C1656.5,1266,1646,1262.6,1629.53,1256.55Z"/></svg>