<svg id="Layer_1" data-name="Layer 1" xmlns="http://www.w3.org/2000/svg" viewBox="0 0 2000 2000"><path d="M1622.4,673.74c-4.76,7.67,11.23,7,6.26,16.49-1.9,3.64,1.58,13,10.54,13.69.53,0,1,3.89,1.11,6,.19,2.53-.53,7.16.13,7.34,10.09,2.83,7.47,11.73,8.28,18.15,1.67,13.4,4.72,25.42,13.46,36.66,6.15,7.92,9,18.83,11.69,28.85,1.84,6.88,2.31,10.38,11.39,8.7,4.77-.89,14.2,4.14,15.7,8.5,3.73,10.88,13.24,20.32,8.66,34-2.57,7.71-1.31,16.72-1.67,25.15-.54,12.59-1.79,25.23-1.25,37.79.46,10.89,3,21.68,9.83,30.83.71,1,1.68,2.06,1.72,3.13.41,12.26,6.85,21.45,16.41,29.37l-9.21,6.82,12.49,13.13,12.26-7.48-.4.39c7.93-.53,11.77,6.14,10.94,11-1.68,9.86,6.07,10,12.45,14-3.65,3.87-6.61,7-10.11,10.68l7.78,11-12.78,9.82,13.09,2.53c.06.8.13,1.61.19,2.42l-11.83,4.28,12.49,11.13-3.62,6.39-7.76,5.82c9,2.25,7.13-2.85,7.27-6.29,15.72,5.06,29.52,10.61,38,27.94,4.33,8.86-5,13.09-.55,19.22l-.86,1.32c-13.83-.59-22.89-8.08-29.84-19.54-3.21-5.27-8.14-9.49-14.94-12.83,1.17,4.24,2.33,8.48,4.57,16.64l-11.8-9.39c-.84,6.94-1.49,12.34-2.15,17.74l-4.87-4.42-9.17-13.36c-4.19,2.44-9.19,3.9-11.76,7.23-3,3.83-1.08,8.5,3.25,11.43l-6.23,7.72,27.73,10c-.86-4-1.68-7.91-2.5-11.79l-.51.44,7.4-.45-.4-.46,6.65,15.16c-1.05,5.33-12.51,9.33-7.4,21,1.38,3.15-8,11-12.5,16.79l11.62,15.07-6-3.09-11.9,22.13c3.79,5.6,7.82,11.56,12.67,18.75l-14.65,8-3.85-5.1-1.58,2,5.79,2.74q2.69,5.51,5.38,11c-10.94,8.33-1.4,27.67-18.93,32.74-8.46-8.54-18.25-16.24-31.46-5.42-.69.57-2.84-.75-4.34-1.06-7.87-1.67-15.75-3.3-25.6-5.35,2.08,5.94,3.37,9.64,5,14.25-10.8,2.1-13.62-4.73-16.07-14.48l-20.49,4c1.31,6.66,2.24,11.37,3.16,16.09q.08,3.12.13,6.24c5.11,7.83,8.1,18.69,21.9,11.66,3-1.55,8.74,2.11,12.83,5.74h-13.39l-2.64,10.08-24.18-6.74,10.82-5.43-13.29-8.91-16.81,27,.43-.37-15.18-1.38,6.09,23.06c-6.79,2.92-11.76,8.84-9.06,18.56-4.59,5.6-3.36,9.53,3.41,11.89-.45,5.75-9.93,12.49,1.84,16.92.8,4.08,2.94,8.49,2,12.14-1,4.06-4.81,7.42-9.11,13.52l11.88,5.19c-9.62,5.35-20.45,2-18.12,12.94-13,3.86-27.69-5.29-37.07,8.67l.47-.48c-7.91-.93-15.92-1.71-17.79-11.78l6.42-1c-.23-.49-.46-1-.7-1.46l-5.31,2.89-14.68,16c5.53,23.55,5.72,23.39,32.47,25.86,8.8.81,17.41,3.61,26.11,5.5l-.41-.29q3.54,4.56,7.09,9.13c-4,1.94-8.43,6-12,5.43-12.44-2.14-24.69-5.63-36.86-9.17-8.08-2.35-15.09-2-21,5.07-2.73-9.75-11.29-10.57-18.57-13.85-7.5-3.38-14.22-8.5-21.45-13l6.3-10.67c-3.95-1.77-7-3.58-10.32-4.54-8.63-2.51-17.71-3.8-25.94-7.21-5.58-2.31-15-2.4-12.49-14.15.42-1.91-11.12-8-17.74-9.51-12.75-2.89-26-3.6-38.92-5.74-8.28-1.36-16.32-4.26-24.62-5.37s-17-5-25.4,1.33c-1.85,1.41-6.14-.49-9.32-.74-5.47-.44-10.94-.77-19.09-1.33,12.26,10.58,21.83,18.63,31.07,27,1.41,1.28,2.4,5.18,1.54,6.32-1.52,2-5.68,4.52-6.87,3.79-3.83-2.37-6.81-6.11-9.87-9.08-1.43,2.61-3.55,6.45-7,12.71l-3.31-14.27c-5.91-1.5-11.15-3-16.48-4.14-17.95-3.78-35.89-7.68-54-10.8-2.38-.41-7.47,3.1-7.9,5.42-1.13,6.08-.38,12.51-.38,19.74,8.51-4.12,14.92-8.86,22-10.14,5.9-1.07,9.92,4.7,9,10.91-1.16,7.6-3.65,15-5.56,22.48l.34-.35c-3.1,1.55-8.55,2.68-8.91,4.71-2,11.47-13.47,13.83-19.51,21.32-5.62,6.95-14.61,4.68-18.88-3.34-3.3-6.18-6.55-12.38-10-18.84-8,4.58-11.11,9.53-14.36,16.43-5.5,11.65-16.78,18.7-32.14,18.72-2.17-5-3.14-14-13.23-9.92l.5.58-7.73-7.88.33.34c-.3-6.22-.59-12.43-1.06-22.45-1.66,5.62-2.17,7.32-2.83,9.56-7.63-6.19-13.83-16.95-26-8.67l.49-.51c-5.76-1.34-6.49,1.78-7.22,6.69-2,13.21-2.35,13.28-12,20.9l6.86,4.39-6.26,4,.54.61c-4.21-.77-8.46-2.28-12.64-2.13-4.71.17-9.36,1.83-14,2.85,3-2.81,5.54-7.21,9-8.11,7.49-1.93,10.32-7.08,12.14-12l-29-17.9c-1.61,7.65-3.62,13.32-3.82,19-.31,8.69,1.61,16.76,12.36,18.43.44,8.53-3.75,14.3-10.91,18.32l.32-.39-9.15.75,1.5-8.15-2.67,0,1.69,8.12c-7.22-.15-6.53-5.07-6.5-10.12.07-12.45-4.06-21.42-18-24.41-8.05-1.73-15.68-6.11-5.65-15.91,1-1-1.19-5.23-2-8.25-8.62-.85-16.16,13.44-25.06-.76-1.81,28.22,1.49,54.46,7.7,80.4l-15.29,11.56.41-.43c-16,5.8-17.66-10.81-26.27-16.72,14.1-7.38,14.1-7.38,21.52,8.87,4.87-1.66,8.84-3.6,6.43-10.06-2.61-7-8.21-14.85-6.8-21,2.24-9.86-14.1-8.51-4.68-19.68-18.28,10.25-19.32,10-33.69-6.57l13.91-8.88c-1.18-15.08-2.38-30.45-3.36-43l-50.95-38.14c17.68-9.28,18.78-24.61,16.51-37.23-1.47-8.12-12.42-15.62-20.63-21.15-10.8-7.28-13.91-11.37-11.86-24.46-9.08-.66-18.2-2.16-27.23-1.74-8.78.42-17.47,2.82-29.19,4.87l54.3,25.77c-16.87,3.06-32.8,6.14-48.82,8.61-1.93.29-4.29-3.83-6.57-4-5.18-.35-10.57-9.5-15.86.33-3.8-10.82-13.06-14.61-22.57-17.37-16.44-4.77-33.1-8.79-49.62-13.28-.8-.22-1.22-1.85-2.45-3.87l15.24-5.46c-17-7.12-35.38-7-44.64-23.8l12.45-3-18.71-7.53,13.34-3.3c-1.44-2.44-2.86-4.83-4.62-7.82l21.79,1.51,11.92-23.37c-2.31-.63-6.47-2-10.71-2.88-5.1-1.09-10.35-1.51-15.41-2.76-9.74-2.4-18.66-4.16-23.71,8.2-1.26,3.08-6.36,4.59-12.35,5.37,2-4.13,3.93-8.27,5.82-12.24-10.2-5-21.17-10.8-32.51-15.7-2.35-1-6.1,1.17-9.2,1.91-8.39,2-16.55,9.06-25.39,1.17a7.07,7.07,0,0,0-.88-2c1.09-2.6,2.17-5.2,3.27-7.85-16.84-10.29-19.14-9.17-20.94,10.57-.05.53.76,1.5.64,1.61-11.66,9.4-4,18.33,3.88,29.55-7.11-1.1-10.71-1.65-14.31-2.19,2.74,8.42-8.91,13.45-6.36,22.63l-4.08-10.74-2.52.5v20.32c-9.45-.42-3.27-5.89-4.42-8.57-1-2.42-4.86-3.65-7.79-5.62l5.24-6.71c-7.54-.61-13.6-9.34-21.15-.58l.43-.44-7.85-3.87c1.73-4.16,3.19-7.64,4.2-10.07l-25.77-13.72c-5,1.42-5.26,8.72-6.27,14.89-1.73,10.7-2.57,21.55-3.85,32.33-2.27,19.14-16.68,24.93-32.91,14-8.77-5.92-18.91-9.8-27.8-15.59a63.77,63.77,0,0,1-15.62-14.5c-1.52-2,0-7.68,1.87-10.66,5.52-9,11.86-17.43,17.17-25.07-7-7.71-14.12-14.78-20.25-22.64-6-7.66-1.5-12.57,5.76-15.79-2.46-3.6-5.35-7-7-11-.28-.69,4.7-3.56,6.06-4.56l-14.13-23.9,19.16,4.35c-2.25-4.34-5.3-8.63-6.7-13.4s-1.13-10-1.64-15.59l19.55,4.32c16.56-19.46,19.09-41.37,17.91-65l-19.78,5.32,8.35-29.09,7.68-1-7.18-7.76c2.5-5.53,4.92-10.86,7.86-17.35L429,1019.81c-4.19,12.55-8.35,24.21-12,36-3.72,12.09-7.33,24-15.15,34.45-2.5,3.33-2.15,8.71-3.54,13-1.73,5.39,4.18,14.89-7.9,15.13-.49,0-1.2,4.2-1.3,6.46-.45,10.13-.38,10.14-12.73,7.31l10-21.23c-6-.4-11.63-.58-17.21-1.21-5.39-.61-10.72-1.7-15-2.39-3.48-4.48-6-9-9.64-12.18-10-8.65-17.18-5.94-19.26,7.21-1.47,9.29-2,18.73-3.07,28.09-.94,8.61-3.4,16.36-10.58,20.27-9-2.45-17.07-4-24.59-6.83-9.27-3.53-19.83-3.22-27.81-11.22-3.88-3.88-10.71-5.57-16.51-6.64-15.72-2.9-29-10-40.74-20.61l4.41-4.93c-18-13.4-18-15.79,2.59-28l7.21,11.55c9.51,3,17.88-7.35,25.3,1.71l-8.09,6.94,42.8,11.39,2.83-4c-2.84-3.57-5.11-7.91-8.66-10.5-4.29-3.14-9.67-4.81-14.57-7.11,1-9.91-7.67-11.18-13.48-13.22-13.4-4.7-25.69-10.41-37.52-18.77-7-4.92-8.78-10.4-11.93-16.56,12.74-8.89,20.28-19.89,23-35.26,2.08-11.55,8-22.41,12.33-33.54,2.81-7.24,6.77-14.2,8.41-21.69,1.6-7.3,3.94-12.38,10.07-17.59,3-2.58-3-13.92-1-20,2.29-6.86,2-15.73,12.58-19.71,6.59-2.47,10.33-12.55,15.1-18.9,16.71-.51,22,27.47,43.69,14.67-11.67-13.76-39.8-9.55-37.87-36.71,2.32-2.08,5.26-5.83,9.12-7.79,2.62-1.33,9-1.15,9.48.06,5.25,12.91,17.7,11,27.45,13.15,11.27,2.46,23.12,2.26,35.84.35-8.92-5-17.79-10.12-26.8-15-2.07-1.11-4.78-1-7-1.94-20.88-9.12-24.66-16.92-19.78-41.38,2.6-.31,5.43-1,8.2-.86,2.25.13,4.44,1.34,7.62,2.38,1.5-5.32,1.37-11.7,4.46-14.44,7.67-6.8-7.22-7.75-1.35-14,7.3,2.77,15.23,2.33,21.68-4.31,11.11,5.79,20.65-2.91,31-3.3,8.88-.34,14.8-4.27,19.16-11.49l-.62.58c3.43-.84,8.48-.56,10-2.74,4.22-6.1,5.38-16.2,10.77-19.09,5.67-3,12.62-2.93,15.47-10.5a8.59,8.59,0,0,1,5-4.53c10.78-3.2,12.89-11.43,13.48-21.14,1.24-20.39,2.39-21.4,24.3-23.67q1.94-7.85,4.11-16.74L470.25,637l20.43,4c1.79-3.16,3.51-6.73,5.75-9.94a81.76,81.76,0,0,1,6.35-7.4c14.29,1.43,28,3.55,41.71,4,17,.51,33.68-1.17,36.32-23.52,7.46,3.38,13.24,8.19,18.54,7.72,4.44-.39,8.33-7,13.55-11.83l-17.2-9.5c-.35-5.4-.74-11.31-1.14-17.41,15.37-3.72,32.83,5.46,45.49-7.58l-9.32-22.3c4.65.27,8-.12,11,.75,12.24,3.6,22.57,3.8,27.84-10.95,3.41-9.52,12.34-3.71,18.67-3.64L673.41,510l72.33,12.75,4.62-10.7c12.17-.58,24.12,0,35.61-2s21.35,1.46,31.53,5.51c4.16,1.66,9.08,3.17,13.22,2.4,1.9-.35,4.11-9.27,3.88-9.38-7.9-3.7-4.35-15.23-14-17.69,32.21-7.32,63-8.1,93.86-.05a74.87,74.87,0,0,0,43-1.08c12.18-4,17.32.73,19.5,16.89-11.9.73-24.09,3.72-35.37,1.68-21.07-3.81-40.47,5.34-60.87,4.86-9-.21-18,0-29,0-11.15,12.59,1.74,24.44,5.8,36.7,3.13,9.44,13.74,16.23,24.45,17.56l-8.12-7.4c12.47-14,12.76-14.21,24.76-1,6.22,6.83,11.21,14.79,17.54,23.3,14.47-2.09,31.65-4.84,48.91-6.88a45.61,45.61,0,0,1,16.14,1.27c19.52,4.9,29.37,1.77,42.51-14.78l17.67,5.06c-8.33,13.5-21,23.65-18.72,40.67,12.85,1.15,18.83,10,22.82,22.33,6.24-1.75,14.91,2.61,17.24-8.18,2.23-10.32-8-8.4-12.35-12,1.15-10,2.26-19.72,3.38-29.53l23.53,18.13c2.52-2,5.1-4,8-6.23-1.68-5.45-2.26-11.86-5.49-16.35-2.7-3.75-8.51-5.25-13.7-8.18l5.37-8.86-28.47-1.43c12.06-8.73,24.44-15,38.32-14.27,2.69-5.4,5.09-10.23,7.81-15.68,15,6.48,28.34,16.68,42.6,3.19,8.42,10.31,8.42,10.31-3,18.65,12.82.93,22.8-1.86,33.78-7.5,16.3-8.38,34.56-13.08,52.2-18.64,8.78-2.77,16.33-1,20.29,9.13,1.35,3.45,5.21,5.91,8.5,9.44-12.52,10.41-.8,21.32,1.37,33.14,18.44-.25,24.55,15.14,33,26.48,4.86,6.52,5.79,15.92,8.81,23.9.56,1.47,2.61,3.24,4.08,3.34,12.94.94,15,11.71,19.27,20.62a34.5,34.5,0,0,0,12,14.51c.21-4.9,1.74-10.22.34-14.6-2.48-7.72-6.81-14.84-10.22-22.27-.7-1.53-1.59-4.42-1-4.89,8.36-6.56,2.84-16,5.33-23.51s1.76-14,.74-21.64c-1.3-9.77-5-16.05-11.65-23-5.1-5.37-7.43-14.75-8-22.57-.45-6-2.4-8.59-7.16-10.51l.48.28c-3.1-4.36-6.85-8.43-9.06-13.2-1.32-2.85-.24-6.82-.24-10-3-1.81-11.35-6.24-11.14-6.7,6.06-13-18.81-24.13-2.09-37.54,14.7,5.92,7.1,23,17,33.05,6.57-6.65,21.78,5,23.6-13.51,12.1,5.13,7.36,25.29,23.92,24.7V471.34l-7.07,7.85-25.29-27.25,2.17-2.93,12.52,5.25c1.17-3.54,2.37-7.17,3.69-11.18,15,14.37,20.06,15.52,33.39,7.33,4.84,24.54,24.48,15,40.36,16.4.35,4.75.64,8.8,1,14l36.81,4.4c-2.25-5.61-3.44-8.59-4.63-11.57l.57.65c1.62-6.44,3.23-12.89,5.34-21.27,5,5,11.73,8.8,13.81,14.37,4,10.69,14.79,13.46,21.11,21.2,1.38,1.7,6.89,0,10.5-.1l-.45-.41c1.1,5.51.44,10.84,6.35,15.45S1493.37,515.9,1497,523c5.3,10.28,9.5,12.4,22.42,7.95.89,12.8,19.12,11.78,19.77,25.57.15,3.29,4.4,6.44,4.45,9.7.24,15.93,13,26.11,17.64,39.93a4.07,4.07,0,0,0,2.52,2.37c18.17,3.13,11.48,19.3,16.36,31.25,17-2.32,22,17.35,36.41,22.33.66.23.35,9.66,6.26,12.09Zm-46.72,706.76-5.88-6.63-2.21,3.16,8.63,2.88-3.63,8.06,3.09.46Zm72.55-119.7,5.8-8.9-3.84-1.28q-.81,5.33-1.64,10.65l-7.39-.85.6,3.09Zm-1275-241.31L362,1016.87l-.21,3.1,11.91-1,8.83,4.4.81-2.15Zm953.59-285.7q-2-6.36-4.06-12.71l-3.5,1.53c1.14,4.6-2.56,11.68,7.23,11.86.45,1.81.89,3.63,2,8.37l8.67-17-2.18-1.46Q1330.9,729.11,1326.8,733.79Zm342.32,516.85v-9.34l-1.34.23,1.83,8.67c-2.88,11.75-2.88,11.75,14.19,14.88C1685.66,1253.27,1674.79,1254.55,1669.12,1250.64ZM266.61,980.22c-2.43-8.62-11.08-5.48-16.12-9.13,2.82,8.27,9.54,8.75,16.48,8.79,9.36,14.63,10.36,15,27.62,11.26-.42-1.06-.55-2.71-1.31-3.09-7.27-3.59-14.59-7.12-22.07-10.24C270.19,977.39,268.17,979.36,266.61,980.22Zm900.18,452.07,18.51,6.77c-3.36-9-5-13.45-7.46-19.91l-11.39,13.68-10.88-8,5.25,6.69L1140.55,1442c17.67-2.69,9.61,13.14,14.16,21.35l9.45-3.72-10.37-22.76c2.46-1.52,4.9-3.39,7.64-4.54C1163,1431.71,1165,1432.27,1166.79,1432.29Zm266.38-922.07c-1-2.74-2.07-5.49-3.3-8.74l12.13-4.94L1423.39,489c1.12,13.57,2,24.21,3,36.46l18,9.89c4.81,4.51,14.66,6.93,6.95,16.65l-11-1.46c-.54.9-1.09,1.8-1.64,2.7l17,15.6-.53-.43c4.32,11,14.56,5.09,21.82,7.68l5.9,10.91,1.9-.62c-.45-6-.9-12.11-1.37-18.47l6.34.75V541.59c-.48-.5-3.15-3.39-5.83-6.27q1.75-2.31,3.53-4.6l-7.5-2.19-21.65-17.43-21.86,7.62q-1.79-4.43-3.58-8.86l14.26-1.3C1439.66,501.44,1436.69,507,1433.17,510.22ZM657.06,604.63l-6.43-3.25c-.27.79-.54,1.58-.8,2.37l7.63.42c-8,1.38-16.05,2.81-24.1,4.11-9.4,1.52-17.26,5.67-26.12,12.49,12.17,6,21.73,10.65,31.29,15.36l12.39-7.85c-.41-4.39-.77-8.26-1.18-12.68l9.67,3.26c.53-4.48,1.29-7.47,1-10.36C660.32,607.12,658.25,605.92,657.06,604.63ZM548.76,1198c1.39-3.14,4-6.68,3.25-7.73-4.41-6-9.3-10.37-12-18.89-2.43-7.8-16.29-14.38-28.81-12.72-4.1,25.78-8.07,50.65-12,75.49l26.86,4.56c-.54-4.16-1-7.41-1.39-10.71l13.69-3.9c-2.45-8.53-4.51-15.67-7-24.45l30.39,6.39.81-2.77Zm-203-177.63c-2.35,11.4-4.19,21-6.37,30.61s-4.66,19-7.55,30.61l26.18,1.76c.11-.82.23-1.65.35-2.47l-15-6.79,32.88-12.6c-.21-1-.43-2.06-.65-3.09l-25.93-6.92.29-3,31.36-2.75-18.78-9.06c.23-.73.46-1.46.68-2.19h23ZM741.21,628.15c-4.6-8-9.85-17.2-15.45-27-3.94,6.52-8,13.3-11.64,19.27l17.4,30.91L703.59,653c5.87,4.92,9.11,9.86,12.87,10.29,6.26.72,13.55,0,19.14-2.75,6.72-3.29,1.19-9.11.44-14.17-1.34-9,3.7-13.44,14.32-13.08,6.94.24,13.36,1.12,15-11.3Zm112,634-16.52,14.38c1.6,8.13,2.89,14.73,4.28,21.84,8.35.42,16.93,1.91,25.22,1,8.46-1,11.1-7.74,6.17-14.43C866.5,1277,859.7,1269.78,853.2,1262.13Zm-33.48,40.7a13.5,13.5,0,0,0,.59-2.46c2-17.31,2.06-17-16.1-14.75-3.56.45-8.32-1.3-11.15-3.68-8.62-7.26-17.4-7.18-27.8-2.74,1.36,3.15,1.87,7.41,3.73,8.12,10.41,3.93,21.13,7.08,31.79,10.33C806.8,1299.48,812.92,1301,819.72,1302.83Zm-147.11-694c-2.69,13.74-18,20.88-4.2,34.3,3.4-3.62,6.34-6.75,9.37-10l13.08,15.27,8.85-24.38Zm11.9,599.87c-20.78-2.86-24.85-2.14-53.26,9.35,10.27.92,17.81,7.1,27,.31,2.44-1.8,8.46,1.26,12.84,2.05s8.9,1.54,14.11,2.43C684.93,1217.69,684.74,1213.65,684.51,1208.7Zm1029.11,46.93c21.29-14.88-.71-22.07-1.9-31.93l-13.93,6C1702.75,1237.83,1707.66,1245.86,1713.62,1255.63ZM1034.94,665.74l20.19-9.62c-9.39-21.8-22.43-2.74-35.09-3.1C1025.93,658,1030.76,662.16,1034.94,665.74Zm-777,371c-16.63-18.55-16.63-18.55-29.08-21.42C231.22,1034,247.91,1030.7,257.9,1036.79Zm1462.19,145,7.19,20.32C1734.4,1190.25,1733.3,1186.68,1720.09,1181.79Zm-263.57,255.35c-.33,1.58-.65,3.16-1,4.75,4.61.88,9.21,2,13.87,2.31.56,0,1.41-4.5,2.53-8.24Zm159.94-190.9v23.65c2.89-4.12,5.64-8,8.32-11.87ZM985.59,614.72,968.06,612C975.89,622.54,975.89,622.54,985.59,614.72ZM1351.21,737.4c-.55-1.39-1.11-2.79-1.66-4.19-3.71.76-7.58,1.14-11,2.6-.69.29-.56,6,.81,7C1346.06,747.7,1346.57,737.93,1351.21,737.4ZM790.54,651.9c-.53,1.23-1.07,2.45-1.6,3.68l16.91,7.3,1.57-3.63Zm36.61,626.51-11.38-12C815.18,1278.33,815.18,1278.33,827.15,1278.41ZM1346.59,467.9l-3.73,2.77c-.59,9.18-.59,9.18,14.28,6.16ZM419.78,847.43c-.7,1.51-1.39,3-2.09,4.54l18.16,8.16,1.64-3.52Zm-149.6,188.34-1.08,4.49c5.8-1.1,9.58,7,19.14,1.48Zm393.42,155c9.47,2.63,9.47,2.63,10.69-9.77ZM443.9,859.09l-.81,4.51,15.15,3,.94-5.14Zm939.79,530-.9,1.75h18.75l-.07-1.75Zm325.25-175c10.58-5.56,10.58-5.56,4.91-14.52ZM606.09,1157.69l-5.72,3.85c1.57,1.32,3,2.9,4.81,3.78.4.2,2.75-2,2.84-3.16C608.14,1160.73,606.8,1159.19,606.09,1157.69Zm-161.9,33.71-1.25,2.16c1.36,1.52,2.49,3.87,4.15,4.35,2,.59,4.5-.4,6.78-.7l.15-2.62Zm476.55-602c3.43,4.23,6.86,8.88,12.06.86ZM1038,635.49c.1-1.43.2-2.87.29-4.31l-11.36-.91c-.15.87-.29,1.75-.44,2.62ZM551.08,1219.64c0-1,0-2,.08-3a17.31,17.31,0,0,0-4.45-.89c-.52,0-1,1.7-1.44,2.62Zm167.27,45.5,2.86,2.32,4.54-7.32-1.82-1.27ZM515.84,1147.49l4.21-.4-.57-3.54Zm809.52-438.61c.8-.84,1.88-1.56,2.23-2.53.2-.57-.79-1.55-1.24-2.35l-3.38,2Zm-130.94,712c-.08.94-.17,1.88-.25,2.82l4.95.31c.14-.42.27-.85.4-1.27Zm298.2-10.64c.17-1.2.34-2.39.5-3.58l-7.46-.33c.13,1,0,2.89.42,3A54.46,54.46,0,0,0,1492.62,1410.27ZM1343,1399.14c1.73,2,2.59,3.61,3.06,3.5a19.31,19.31,0,0,0,4.25-2.05Zm-902-154.79c-.47-1-.71-2.37-1.49-2.79s-2,.26-3,.45a12.17,12.17,0,0,0,1.75,3.36C438.45,1245.66,440,1244.73,440.94,1244.35ZM266.56,913.79a14.74,14.74,0,0,0-3.26-2.52c-.5-.21-1.58,1-2.4,1.48q1.65,1.79,3.32,3.56Zm80.16,101.8c1-.37,2.45-.5,2.78-1.18s-.43-1.94-.72-2.95a11.7,11.7,0,0,0-2.57,2C345.93,1013.84,346.51,1014.86,346.72,1015.59Zm1376.39,207.16c-.54-.84-.9-2.1-1.65-2.4s-1.81.48-2.74.78c.44.86.74,2.31,1.35,2.46C1721,1223.8,1722.08,1223.08,1723.11,1222.75Zm-52,3.74c.37-.93.74-1.85,1.06-2.79a3.93,3.93,0,0,0-1-.38c-.57.85-1,1.76-1.56,2.66Zm-63.35,1.44c-.07.77-.13,1.53-.2,2.29l6,.44.18-2.11Zm28.47,25.26c-.82-.25-1.83-.93-2.41-.67-.9.41-1.52,1.46-2.26,2.24a17.9,17.9,0,0,0,3.71,1C1635.54,1255.83,1635.93,1254.12,1636.26,1253.19ZM1322.49,461.31c-.79.59-2.15,1.13-2.21,1.78-.07.9.85,1.88,1.34,2.82l3.41-2.38ZM1096.58,1454.4l-3.86-2.62c-.66,1.26-1.33,2.52-2,3.77a25.74,25.74,0,0,0,4.26,1.7C1095.23,1457.31,1095.88,1455.67,1096.58,1454.4Zm-14.92-1.85c-.41,1-.82,2.06-1.22,3.09,1,.31,2.13.9,3.14.78.45-.05,1.24-2,1-2.25A11.34,11.34,0,0,0,1081.66,1452.55Zm65.12-42.68,2.73-1c-.32-.4-.61-1.11-1-1.14a17.28,17.28,0,0,0-3,.2Zm-64-851.44c-.9.51-2.36.86-2.58,1.57-.29,1,.37,2.22.63,3.35.89-.64,2.17-1.11,2.56-2S1083,559.43,1082.79,558.43Zm256.5,42.65c-.37-.85-.67-2.39-1.1-2.42-.92-.07-1.89.63-2.84,1,.52,1.15,1.05,2.3,1.58,3.45C1337.71,602.44,1338.49,601.76,1339.29,601.08Zm-234.82,11.78a16.45,16.45,0,0,0,1.14-2.8c.05-.2-1.08-1-1.29-.9a13.62,13.62,0,0,0-2.1,1.8C1103,611.59,1103.71,612.23,1104.47,612.86ZM1024.11,619l-1.17-.15c.1.93.2,1.86.31,2.78l1.48-.21C1024.52,620.57,1024.32,619.76,1024.11,619Zm321.9,7.91a14.66,14.66,0,0,0,.92-2.52c0-.14-1.11-.82-1.49-.67a10.72,10.72,0,0,0-2.27,1.52Zm22.4,9.08v-.83c-1.46,0-2.92,0-4.38,0-.12,0-.22.52-.34.79Z"/></svg>